PathFileType	4	(X/Y/Z)	C:\Users\Basilio\Documents\Thesis Gigler\squatting_fais\c3dfiles\044\SJ_pre5\markers_experimental.trc
DataRate	CameraRate	NumFrames	NumMarkers	Units	OrigDataRate	OrigDataStartFrame	OrigNumFrames
200.000000	200.000000	4	61	mm	200.000000	705	1880
Frame#	Time	FHD			LBHD			RBHD			C7			T10			CLAV			LSHO			LUUPA			LMUPA			LDUPA			LLEP			LMEP			LRAD			LUL			LRFIN			RSHO			RUPA1			RMUPA			RDUPA			RLEP			RMEP			RRAD			RUL			RUFIN			LASI			RASI			USACR			LSACR			RSACR			LTHI1			LTHI2			LTHI3			LTHI4			LLFC			LMFC			LTIB1			LTIB2			LTIB3			LTIB4			LLMAL			LMMAL			LHEE			LMT1			LMT2			LMT5			RTHI			RTHI2			RTHI3			RTHI4			RLFC			RMFC			RTIB1			RTIB2			RTIB3			RTIB4			RLMAL			RMMAL			RHEE			RMT1			RMT2			RMT5			
		X1	Y1	Z1	X2	Y2	Z2	X3	Y3	Z3	X4	Y4	Z4	X5	Y5	Z5	X6	Y6	Z6	X7	Y7	Z7	X8	Y8	Z8	X9	Y9	Z9	X10	Y10	Z10	X11	Y11	Z11	X12	Y12	Z12	X13	Y13	Z13	X14	Y14	Z14	X15	Y15	Z15	X16	Y16	Z16	X17	Y17	Z17	X18	Y18	Z18	X19	Y19	Z19	X20	Y20	Z20	X21	Y21	Z21	X22	Y22	Z22	X23	Y23	Z23	X24	Y24	Z24	X25	Y25	Z25	X26	Y26	Z26	X27	Y27	Z27	X28	Y28	Z28	X29	Y29	Z29	X30	Y30	Z30	X31	Y31	Z31	X32	Y32	Z32	X33	Y33	Z33	X34	Y34	Z34	X35	Y35	Z35	X36	Y36	Z36	X37	Y37	Z37	X38	Y38	Z38	X39	Y39	Z39	X40	Y40	Z40	X41	Y41	Z41	X42	Y42	Z42	X43	Y43	Z43	X44	Y44	Z44	X45	Y45	Z45	X46	Y46	Z46	X47	Y47	Z47	X48	Y48	Z48	X49	Y49	Z49	X50	Y50	Z50	X51	Y51	Z51	X52	Y52	Z52	X53	Y53	Z53	X54	Y54	Z54	X55	Y55	Z55	X56	Y56	Z56	X57	Y57	Z57	X58	Y58	Z58	X59	Y59	Z59	X60	Y60	Z60	X61	Y61	Z61	

706	3.525	-231.4390563964844	1768.033569335938	-900.3848266601565	-356.3860168457032	1720.975341796875	-985.9658203125002	-407.083221435547	1699.865234375	-828.8701171875002	-427.4566040039064	1537.896118164063	-912.4344482421877	-458.3065490722657	1233.981201171875	-915.9287109375002	-290.7330017089844	1488.789306640625	-908.951110839844	-325.2127685546876	1530.727172851563	-1091.374389648438	-395.5722961425782	1352.112670898438	-1232.224365234375	-363.6540527343751	1313.961547851563	-1222.363647460938	-405.0153808593751	1289.65966796875	-1260.768310546875	-404.4135742187501	1231.345092773438	-1272.863159179688	-471.8821105957032	1225.431640625	-1222.62646484375	-382.4471435546876	984.7292480468752	-1139.453857421875	-336.1718444824219	974.8298950195315	-1193.030639648438	-323.3157043457032	999.0917968750002	-1105.889892578125	-347.2394104003907	1510.422241210938	-716.3458862304689	-399.4467773437501	1322.004272460938	-591.8195190429689	-365.6612548828126	1286.30078125	-604.4136352539064	-400.4955139160157	1256.584838867188	-565.8916625976564	-392.687225341797	1194.550903320313	-558.1887817382814	-468.1688537597657	1185.826904296875	-598.3519287109376	-380.2432861328126	953.9599609375002	-702.9908447265626	-335.7874145507813	941.4707641601565	-647.6291503906251	-317.0266723632813	970.173278808594	-740.6705932617189	-284.6490478515626	1028.365112304688	-1030.466430664063	-283.4301757812501	1001.117004394531	-815.3614501953127	-450.361297607422	1082.2822265625	-916.379089355469	-458.3504028320314	1051.210205078125	-944.521423339844	-455.4248657226564	1050.490478515625	-887.8846435546877	-397.2424316406251	806.0328369140627	-1121.534301757813	-367.1434326171876	727.0878906250001	-1126.894409179688	-319.6591491699219	727.5803222656251	-1122.04638671875	-396.2413940429689	674.8543701171876	-1117.029296875	-387.0341796875001	515.1074829101564	-1115.176513671875	-373.8153686523438	498.0778198242189	-994.8995361328127	-373.8432006835938	332.8728027343751	-1060.201293945313	-406.1610412597657	294.7666320800782	-1133.858032226563	-374.9046936035157	287.9624633789063	-1099.102783203125	-394.6250915527345	209.1516876220704	-1076.166748046875	-455.0897216796876	96.70632171630862	-1130.79052734375	-432.0611267089845	98.59173583984378	-1046.651000976563	-513.2664794921876	49.16432952880861	-1083.151611328125	-295.9500427246094	60.76490020751955	-1076.848999023438	-299.3504638671876	61.80983734130861	-1122.131713867188	-335.0546569824219	38.55000686645509	-1168.267944335938	-395.6666259765626	747.5138549804689	-730.4248046875001	-355.4336853027344	694.1523437500001	-719.9337158203126	-322.7187194824219	695.4533691406251	-722.6860961914064	-379.2063598632813	613.7842407226564	-734.6293334960939	-380.4497985839844	501.122039794922	-734.8398437500001	-376.0690612792969	485.7720642089845	-856.6060180664065	-349.8492431640626	368.0702514648438	-748.5891113281251	-431.434539794922	310.1324768066407	-701.8565063476564	-390.2765502929689	296.6281127929688	-715.4107666015626	-385.565887451172	242.5791931152344	-736.8169555664064	-473.780242919922	98.20633697509768	-715.2276611328126	-445.0503845214845	97.67121124267581	-795.8626708984377	-524.7671508789064	50.50883865356447	-761.4443359375001	-311.2266540527344	62.10056686401369	-753.4020385742189	-310.1838684082032	60.32255172729494	-715.5800781250001	-352.0636901855469	40.6017189025879	-667.1676025390626	
707	3.53	-232.4805755615235	1768.018676757813	-900.1445312500002	-356.3969421386719	1721.513061523438	-985.9192504882815	-407.9532165527345	1699.954467773438	-828.9642333984377	-428.2393798828126	1537.913452148438	-912.390563964844	-458.5731811523439	1233.770385742188	-916.0144042968752	-291.8119506835938	1488.544677734375	-908.9116210937502	-325.8787536621094	1530.793823242188	-1091.4384765625	-396.1985473632814	1352.232177734375	-1232.321044921875	-364.2172546386719	1313.998168945313	-1222.644653320313	-405.6141052246095	1289.747436523438	-1260.881225585938	-405.0691528320314	1231.39453125	-1272.938598632813	-472.4295043945314	1225.40478515625	-1222.746948242188	-382.5706787109376	984.932800292969	-1139.521484375	-336.2978820800782	974.967956542969	-1193.19384765625	-323.3265380859376	999.3189086914065	-1106.110229492188	-348.2207336425782	1510.298706054688	-716.1962280273439	-400.2982177734376	1321.805419921875	-591.5769042968751	-366.5089416503907	1286.185180664063	-604.1509399414064	-401.3951110839845	1256.648803710938	-565.8060302734376	-393.3211364746095	1194.564453125	-558.0758666992189	-468.704803466797	1185.732666015625	-598.3571166992189	-380.2850036621094	954.0925292968752	-703.0637817382814	-335.7260131835938	941.5640258789065	-647.6069946289064	-317.0503234863282	970.2574462890627	-740.6557006835939	-284.5912780761719	1028.623901367188	-1030.535278320313	-283.3881530761719	1001.268981933594	-815.4141235351565	-450.352996826172	1081.393432617188	-916.214782714844	-458.3299865722657	1051.0244140625	-944.5886230468752	-455.4805908203126	1050.231323242188	-887.9558105468752	-397.4743041992189	806.3494262695315	-1121.493286132813	-367.2948913574219	727.2105102539064	-1126.88037109375	-319.8156433105469	727.6384277343751	-1122.047607421875	-396.427947998047	675.0018920898439	-1117.033813476563	-387.5722045898439	515.3081665039064	-1115.096069335938	-374.3137207031251	498.2955322265626	-994.8281860351565	-374.4728088378907	332.9444885253907	-1060.127197265625	-406.7966918945314	294.4064331054688	-1133.947265625	-375.2612915039063	288.0569763183594	-1099.161499023438	-394.7937622070314	209.2994384765626	-1076.166870117188	-455.1162719726564	96.73696136474612	-1130.78369140625	-432.0940856933595	98.57715606689456	-1046.645751953125	-513.3018798828126	49.13110733032228	-1083.158325195313	-295.9938354492188	60.76157760620119	-1076.9052734375	-299.3420715332032	61.82244110107423	-1122.196655273438	-334.7802429199219	38.39759826660157	-1167.975708007813	-395.6592712402345	747.5623168945314	-730.4868164062501	-355.4439697265626	694.2402954101564	-720.0250854492189	-322.7413940429688	695.4907836914064	-722.7692260742189	-379.2872314453126	613.8924560546876	-734.8057250976564	-380.6184387207032	501.1954345703126	-734.9291992187501	-376.0680236816407	485.8255615234376	-856.784362792969	-349.8921813964844	368.0533142089844	-748.6494140625001	-431.5199584960939	310.1508789062501	-701.8528442382814	-390.3120727539064	296.6930541992188	-715.4682617187501	-385.769744873047	243.0318145751954	-737.2839355468751	-473.8021545410157	98.21260070800784	-715.2228393554689	-445.0335083007814	97.636344909668	-795.8676757812502	-524.7550659179689	50.50848770141603	-761.4721679687501	-311.1868896484376	62.14419174194337	-753.3890991210939	-310.1917419433594	60.1968231201172	-715.6257934570314	-352.0348205566407	40.62727355957032	-667.1071777343751	
708	3.535	-233.4200897216797	1768.078247070313	-900.011169433594	-357.5447998046876	1721.614624023438	-985.7698364257815	-408.8659667968751	1699.9384765625	-829.1231689453127	-428.977264404297	1537.799438476563	-912.4465942382815	-459.0661926269532	1233.608520507813	-916.0674438476565	-292.5245361328126	1488.799560546875	-908.7662353515627	-326.6055603027344	1530.878295898438	-1091.446533203125	-396.8166809082032	1352.299194335938	-1232.437133789063	-364.7781677246094	1314.171142578125	-1222.812133789063	-406.2322998046876	1289.811645507813	-1261.038940429688	-405.5790405273439	1231.4658203125	-1273.077026367188	-473.0975646972657	1225.42333984375	-1222.840942382813	-382.4329528808594	984.9084472656252	-1139.66748046875	-336.4450378417969	975.1663208007815	-1193.419799804688	-323.3730163574219	999.4473876953127	-1106.266845703125	-349.2361450195313	1510.052734375	-716.0272216796876	-401.147186279297	1321.843627929688	-591.4805297851564	-367.2571716308594	1286.192260742188	-604.0418701171876	-401.8688964843751	1256.608764648438	-565.7832031250001	-393.9840087890626	1194.79052734375	-558.1841430664064	-469.1144104003907	1185.548828125	-598.4019165039064	-380.4089355468751	954.246276855469	-703.1440429687501	-335.7602539062501	941.712585449219	-647.6726074218751	-317.0629272460938	970.3886718750002	-740.6784667968751	-284.6629333496094	1028.791381835938	-1030.702758789063	-283.3451232910157	1001.414489746094	-815.5089111328127	-450.5154113769532	1081.53369140625	-916.3730468750002	-458.427459716797	1050.921264648438	-944.7044677734377	-455.5455627441407	1050.015380859375	-888.0155029296877	-397.6086425781251	806.4509277343752	-1121.479614257813	-367.5255126953126	727.2985229492189	-1126.815551757813	-320.0082397460938	727.7111206054689	-1121.923950195313	-396.7868652343751	675.2057495117189	-1117.00341796875	-388.2272338867189	515.4404907226564	-1114.954711914063	-374.6632385253907	498.0303039550782	-994.534118652344	-374.6412353515626	332.9888000488282	-1060.070434570313	-406.6758422851564	294.8822631835938	-1133.937622070313	-375.4482421875001	288.0055541992188	-1099.148681640625	-394.9853515625001	209.4763793945313	-1076.163330078125	-455.1985168457032	96.73254394531253	-1130.741455078125	-432.1242980957032	98.55810546875003	-1046.667114257813	-513.2746582031251	49.11227416992189	-1083.143920898438	-295.9741516113282	60.78465270996095	-1076.891357421875	-299.3643493652344	61.69689178466798	-1122.2412109375	-335.6263427734376	38.92029571533204	-1168.048950195313	-395.6774291992189	747.7837524414064	-730.6170654296876	-355.4101562500001	694.2620849609376	-720.1495361328126	-322.7266540527344	695.5594482421876	-722.7977294921876	-379.3799133300782	613.9413452148439	-734.9926147460939	-380.8220825195313	501.2919311523439	-735.0869140625001	-376.0672607421876	485.8658447265626	-856.911071777344	-349.9594116210938	368.0099792480469	-748.6332397460939	-431.6776428222657	310.2447509765626	-702.0169677734376	-390.4481811523439	296.7335205078126	-715.5462646484376	-385.7732238769532	243.0551300048829	-737.3029174804689	-473.7982177734376	98.33840942382815	-715.2756347656251	-445.0722656250001	97.63663482666018	-795.910339355469	-524.7692871093751	50.49349212646486	-761.4248046875001	-311.1927490234376	62.13601684570314	-753.3895874023439	-310.1639709472657	60.20347213745119	-715.6080932617189	-352.0688171386719	40.60564041137696	-667.2114257812501	
709	3.54	-234.2455749511719	1768.035888671875	-900.2004394531252	-359.0908813476563	1721.222900390625	-985.7620849609377	-410.057830810547	1699.9619140625	-829.040710449219	-429.764129638672	1537.684448242188	-912.4810180664065	-459.4780883789064	1233.459838867188	-916.0885009765627	-293.1709289550782	1488.836791992188	-908.7759399414065	-327.4823608398438	1530.916381835938	-1091.2490234375	-397.4412841796876	1352.386596679688	-1232.5615234375	-365.3296813964844	1314.25537109375	-1222.984619140625	-406.7105407714845	1289.892333984375	-1261.21728515625	-406.0340270996095	1231.5673828125	-1273.1875	-473.6560668945314	1225.38427734375	-1222.898193359375	-382.5193481445313	984.9887695312502	-1139.8369140625	-336.6008911132813	975.4604492187502	-1193.559814453125	-323.3607177734376	999.6124267578127	-1106.43212890625	-349.8410644531251	1510.142700195313	-716.0795898437501	-401.9859008789064	1321.972534179688	-591.5385131835939	-368.1264038085938	1286.552001953125	-603.9955444335939	-402.4554443359376	1256.491088867188	-565.7052001953126	-394.5229492187501	1194.670288085938	-558.0044555664064	-469.6320800781251	1185.303344726563	-598.4227905273439	-380.2109375000001	954.3171386718752	-703.1356811523439	-335.7425842285157	941.8518676757815	-647.7757568359376	-317.0674743652344	970.4627075195315	-740.7288818359376	-284.8070373535157	1028.957275390625	-1030.767944335938	-283.4180908203126	1001.543579101563	-815.5654296875002	-450.7320251464845	1081.36865234375	-916.4722290039065	-458.5306701660157	1050.712158203125	-944.7373657226565	-455.5547485351564	1049.85986328125	-888.1685791015627	-397.7858276367189	806.5976562500002	-1121.416015625	-367.7581787109376	727.4135131835939	-1126.910766601563	-320.2783813476563	727.7548828125001	-1121.87451171875	-397.1515197753907	675.3660888671876	-1116.929931640625	-388.8812866210939	515.4255981445314	-1114.922729492188	-375.3514709472657	498.5233154296876	-994.7020263671877	-375.1941528320313	332.8685302734376	-1060.085571289063	-406.8785400390626	294.9891052246094	-1133.909545898438	-375.6100158691407	288.2125854492188	-1099.202392578125	-395.1258544921876	209.7489013671876	-1076.1611328125	-455.253143310547	96.75537872314456	-1130.79443359375	-432.2320861816407	98.55948638916018	-1046.647094726563	-513.2622070312501	49.09405517578126	-1083.216186523438	-295.8135070800782	60.5341262817383	-1076.90869140625	-299.3770141601563	61.68025207519533	-1122.238647460938	-335.1410827636719	38.58944320678712	-1168.295532226563	-395.7090759277345	747.9785766601564	-730.7703247070314	-355.4834899902344	694.4624023437501	-720.3114013671876	-322.6373596191407	695.8090209960939	-723.3964233398439	-379.4272155761719	614.1029663085939	-734.9931030273439	-380.9003906250001	501.300994873047	-735.2366333007814	-376.2364807128907	485.8731689453126	-857.0510253906252	-350.0255737304688	368.0100097656251	-748.7353515625001	-431.8728637695314	310.2922058105469	-702.0601196289064	-390.5312805175782	296.7192077636719	-715.5252075195314	-385.8274230957032	243.0842742919922	-737.3984985351564	-473.8252563476564	98.26847839355472	-715.2899169921876	-445.0618896484376	97.63244628906253	-795.9048461914065	-524.4782104492189	50.14538192749025	-761.5143432617189	-311.2289733886719	62.13551712036134	-753.4029541015626	-310.1792602539063	60.34483718872072	-715.6318969726564	-352.1004943847657	40.5637550354004	-667.1120605468751	
